<?xml version="1.0" encoding="UTF-8"?>
<svg id="attachment" fill="currentColor" xmlns="http://www.w3.org/2000/svg" viewBox="0 0 26.56 30.41">
    <g id="attachment-Ebene_1-2">
        <rect x="13.09" y="14.38" width="9.55" height=".75"/>
        <rect x="8.23" y="25.69" width="14.4" height=".75"/>
        <path
            d="M20.21,0H4.09v2.87c-1.19.11-2.15.55-2.85,1.3C-.13,5.63,0,7.74,0,7.8v6.57c0,.08-.04,1.86,1.1,3.03.63.65,1.49.98,2.54.98.15,0,.29,0,.44-.02v12.05h22.47V6.54L20.21,0ZM20.43,1.3l4.78,4.92h-4.78V1.3ZM25.81,29.66H4.84v-11.44c.57-.16,1.06-.45,1.45-.87,1.1-1.18.99-2.93.99-2.98v-6.5s.1-1.07-.6-1.83c-.47-.52-1.16-.78-2.06-.78-1.95,0-2.48,1.68-2.49,2.57v5.85h.75v-5.85c0-.07.04-1.83,1.74-1.83.68,0,1.18.18,1.5.52.47.51.41,1.25.41,1.3v6.56s.09,1.51-.79,2.44c-.48.52-1.18.78-2.08.78-.85,0-1.52-.25-2-.75-.92-.94-.9-2.47-.9-2.5v-6.61s-.11-1.88,1.03-3.1c.67-.72,1.66-1.08,2.94-1.08s2.19.36,2.86,1.06c1.18,1.22,1.11,3.12,1.11,3.16v5.76h.75v-5.74c0-.09.08-2.23-1.32-3.69-.8-.83-1.91-1.27-3.29-1.29V.75h14.83v6.22h6.14v22.69Z"/>
        <rect x="8.23" y="21.87" width="14.4" height=".75"/>
        <rect x="8.23" y="18.06" width="14.4" height=".75"/>
    </g>
</svg>
