<?xml version="1.0" encoding="UTF-8"?>
<svg id="auctionCatalog" xmlns="http://www.w3.org/2000/svg" fill="currentColor"  viewBox="0 0 26.86 30.95">
    <g id="auction-catalog-Ebene_1-2">
        <path
            d="M26.46,24.53l-1.21-1.21h.1S25.39,0,25.39,0H3.28c-.05,0-1.31-.08-2.26.8C.34,1.43,0,2.36,0,3.57c0,2.51.04,21.33.05,24.15,0,.2,0,.33,0,.38,0,.13.01,1.32.8,2.14.47.48,1.1.72,1.87.72h22.49v-.76c-.09,0-2.33-.08-2.33-2.12,0-.64.2-1.16.57-1.58l.52.52c.26.26.61.41.99.41h0c.37,0,.72-.15.98-.41l.51-.51c.26-.26.41-.61.41-.98s-.14-.72-.41-.98ZM24.58,22.65l-8.05-8.05,1.36-1.36c.2.18.45.28.73.28h0c.3,0,.59-.12.8-.33l.37-.37c.21-.21.33-.5.33-.8s-.12-.59-.33-.8l-4.61-4.61c-.44-.44-1.16-.44-1.6,0l-.37.37c-.21.21-.33.5-.33.8,0,.27.11.52.28.73l-5.26,5.26c-.43-.37-1.12-.36-1.53.05l-.37.37c-.21.21-.33.5-.33.8,0,.3.12.59.33.8l4.61,4.61c.21.21.5.33.8.33h0c.3,0,.59-.12.8-.33l.37-.37c.42-.42.43-1.09.05-1.53l1.42-1.42,7.79,7.79-18.49.1V.76h21.29l-.05,21.89ZM12.11,17.95l-3.65-3.65,5.24-5.24,3.65,3.65-5.24,5.24ZM12.05,18.96c.14.14.14.38,0,.52l-.37.37c-.07.07-.16.11-.26.11h0c-.1,0-.19-.04-.26-.11l-4.61-4.61c-.07-.07-.11-.16-.11-.26s.04-.19.11-.26l.37-.37c.07-.07.16-.11.26-.11s.19.04.26.11l4.61,4.61ZM13.75,8.04c-.07-.07-.11-.16-.11-.26s.04-.19.11-.26l.37-.37c.07-.07.16-.11.26-.11s.19.04.26.11l4.61,4.61c.07.07.11.16.11.26s-.04.19-.11.26l-.37.37c-.07.07-.16.11-.26.11s-.19-.04-.26-.11l-4.61-4.61ZM1.53,1.37c.33-.31.73-.46,1.06-.53v24.17c-.74.07-1.34.33-1.78.79-.01-5.66-.05-20.05-.05-22.22,0-.99.26-1.73.77-2.2ZM22.13,28.06c0,1,.4,1.68.95,2.12H2.73c-.56,0-1.01-.16-1.32-.49-.6-.61-.59-1.6-.59-1.61h-.36s.36,0,.36,0c0,0,0-.13,0-.34.02-.36.11-.96.52-1.4.36-.4.92-.6,1.66-.6l19.57-.11v-.03s.36.36.36.36c-.52.56-.79,1.27-.79,2.11ZM25.92,25.96l-.51.51c-.12.12-.28.18-.44.18h0c-.17,0-.33-.07-.45-.19l-9.93-9.93,1.4-1.4,9.93,9.93c.12.12.18.28.18.45s-.07.33-.19.45Z"/>
    </g>
</svg>
