<?xml version="1.0" encoding="UTF-8"?>
<svg id="birth" fill="currentColor" xmlns="http://www.w3.org/2000/svg" viewBox="0 0 17.51 17.51">
  <g id="birth-Ebene_1-2">
    <path class="cls-1" d="M17.11,8.36h-7.39l5.23-5.22c.16-.16.16-.41,0-.57s-.41-.16-.57,0l-5.22,5.23V.4c0-.22-.18-.4-.4-.4s-.4.18-.4.4v7.39L3.13,2.57c-.16-.16-.41-.16-.57,0s-.16.41,0,.57l5.23,5.22H.4c-.22,0-.4.18-.4.4s.18.4.4.4h7.39l-5.23,5.22c-.16.16-.16.41,0,.57s.41.16.57,0l5.23-5.23v7.39c0,.22.18.4.4.4s.4-.18.4-.4v-7.39l5.22,5.23c.16.16.41.16.57,0s.16-.41,0-.57l-5.23-5.22h7.39c.22,0,.4-.18.4-.4s-.18-.4-.4-.4Z"/>
  </g>
</svg>
