<?xml version="1.0" encoding="UTF-8"?>
<svg id="book" fill="currentColor" xmlns="http://www.w3.org/2000/svg" viewBox="0 0 25.01 30.48">
    <g id="book-Ebene_1-2">
        <path
            d="M3.23,0c-.05,0-1.29-.08-2.23.79-.66.62-1,1.53-1,2.72,0,2.46.04,20.83.05,23.76-.01.2,0,.35,0,.41,0,.18.03,1.32.79,2.1.46.47,1.08.71,1.84.71h22.16v-.75c-.09,0-2.3-.08-2.3-2.09s2.22-2.08,2.32-2.08l.1-.69L25.01,0H3.23ZM1.5,1.34c.33-.31.72-.46,1.04-.53v23.8c-.73.07-1.32.33-1.75.78-.01-5.59-.05-19.74-.05-21.88,0-.97.25-1.7.75-2.17ZM21.8,27.64c0,.98.4,1.65.93,2.09H2.69c-.55,0-.99-.16-1.3-.48-.59-.6-.58-1.58-.58-1.59h-.35s.35,0,.35,0c0,0,0-.13,0-.36.02-.36.12-.93.51-1.36.36-.39.91-.59,1.63-.59l20.24-.1c-.75.41-1.39,1.15-1.39,2.39ZM24.21,24.49l-20.92.1V.75h20.97l-.05,23.74Z"/>
    </g>
</svg>
