<?xml version="1.0" encoding="UTF-8"?>
<svg id="corporation" fill="currentColor" xmlns="http://www.w3.org/2000/svg" viewBox="0 0 23.41 17.4">
  <g id="corporation-Ebene_1-2" >
    <g>
      <path class="cls-1" d="M7.36,10.02c1.68.3,3.24-.24,4.35-1.27,1.11,1.02,2.66,1.57,4.34,1.26,1.98-.36,3.61-1.92,4.02-3.89.68-3.26-1.8-6.13-4.94-6.13-1.32,0-2.51.52-3.41,1.35-.9-.84-2.11-1.35-3.43-1.35C5.14,0,2.66,2.88,3.34,6.14c.41,1.97,2.04,3.53,4.02,3.88ZM19.28,6.05c-.34,1.47-1.48,2.68-2.93,3.09-1.58.45-3.04,0-4.07-.93,0,0-.02-.02-.04-.03.68-.86,1.09-1.95,1.09-3.13s-.41-2.27-1.09-3.13c.76-.7,1.76-1.14,2.88-1.14,2.68,0,4.79,2.48,4.15,5.27ZM7.12.94c3.25-.86,6.14,2.03,5.28,5.28-.38,1.42-1.53,2.58-2.96,2.95-3.24.86-6.13-2.03-5.27-5.28.38-1.43,1.53-2.58,2.95-2.96Z"/>
      <path class="cls-1" d="M18.73,9.94c-.16-.08-.35-.04-.46.09-.04.04-.99,1.08-3.11,1.08-.64,0-1.38-.11-1.64-.24-.11-.06-.21-.11-.28-.15-.42-.29-.87-.55-1.35-.79-.16-.08-.35-.04-.46.09-.04.04-.99,1.08-3.11,1.08s-3.32-1.12-3.33-1.13c-.12-.12-.3-.15-.45-.07C1.65,11.39,0,13.97,0,17.02c0,.21.18.38.39.38h13.12s2.66,0,2.66,0h6.84c.21,0,.39-.17.39-.38,0-3.07-1.7-5.65-4.68-7.07ZM13.31,16.62H.79c.13-2.49,1.52-4.6,3.86-5.88.48.38,1.72,1.17,3.66,1.17s3.03-.75,3.48-1.14c2.45,1.26,3.85,3.32,3.98,5.85h-2.46ZM16.56,16.62c-.09-1.82-.78-3.44-1.99-4.74.19.02.39.03.59.03,1.91,0,3.03-.75,3.48-1.14,2.45,1.26,3.85,3.32,3.98,5.85h-6.06Z"/>
    </g>
  </g>
</svg>
