<?xml version="1.0" encoding="UTF-8"?>
<svg id="encyclopediaArticle" fill="currentColor" xmlns="http://www.w3.org/2000/svg" viewBox="0 0 29 30.48">
    <g id="encyclopediaArticle-Ebene_1-2">
        <path
            d="M29,22.67l-4.03-4.03L25.01,0H3.23c-.05,0-1.29-.08-2.23.79-.66.62-1,1.53-1,2.72,0,2.46.04,20.85.05,23.75-.01.2,0,.35,0,.41,0,.18.03,1.32.79,2.1.46.47,1.08.71,1.84.71h22.16v-.75c-.09,0-2.3-.08-2.3-2.09s2.01-2.39,2.1-2.41h0s.9.89.9.89l3.46-3.46ZM.75,3.51c0-.97.25-1.7.75-2.17.33-.31.72-.46,1.04-.53v23.8c-.73.07-1.32.33-1.75.78-.01-5.59-.05-19.74-.05-21.88ZM21.8,27.64c0,.98.4,1.65.93,2.09H2.69c-.55,0-.99-.16-1.31-.48-.59-.6-.58-1.58-.58-1.6,0,0,0-.13,0-.36.02-.36.12-.93.51-1.36.36-.39.91-.59,1.63-.59l19.93-.1c-.6.5-1.08,1.27-1.08,2.39ZM3.29,24.59V.75h20.97l-.05,17.13-3.26-3.26-.41.41-.88-.88c.72-1.14,1.13-2.48,1.13-3.92,0-4.06-3.31-7.37-7.37-7.37s-7.37,3.31-7.37,7.37,3.31,7.37,7.37,7.37c1.29,0,2.5-.33,3.56-.92l.96.96-.45.45,6.41,6.41-20.61.1ZM19.22,14.78l.79.79-1.54,1.54-.84-.84c.6-.42,1.13-.92,1.58-1.5ZM13.43,16.85c-3.65,0-6.62-2.97-6.62-6.62s2.97-6.62,6.62-6.62,6.62,2.97,6.62,6.62-2.97,6.62-6.62,6.62ZM18.56,18.09l2.4-2.4,6.98,6.98-2.4,2.4-6.98-6.98Z"/>
    </g>
</svg>
