<svg>
    <symbol id="auctionCatalog" xmlns="http://www.w3.org/2000/svg" fill="currentColor" viewBox="0 0 26.86 30.95">
        <g id="auction-catalog-Ebene_1-2">
            <path
                d="M26.46,24.53l-1.21-1.21h.1S25.39,0,25.39,0H3.28c-.05,0-1.31-.08-2.26.8C.34,1.43,0,2.36,0,3.57c0,2.51.04,21.33.05,24.15,0,.2,0,.33,0,.38,0,.13.01,1.32.8,2.14.47.48,1.1.72,1.87.72h22.49v-.76c-.09,0-2.33-.08-2.33-2.12,0-.64.2-1.16.57-1.58l.52.52c.26.26.61.41.99.41h0c.37,0,.72-.15.98-.41l.51-.51c.26-.26.41-.61.41-.98s-.14-.72-.41-.98ZM24.58,22.65l-8.05-8.05,1.36-1.36c.2.18.45.28.73.28h0c.3,0,.59-.12.8-.33l.37-.37c.21-.21.33-.5.33-.8s-.12-.59-.33-.8l-4.61-4.61c-.44-.44-1.16-.44-1.6,0l-.37.37c-.21.21-.33.5-.33.8,0,.27.11.52.28.73l-5.26,5.26c-.43-.37-1.12-.36-1.53.05l-.37.37c-.21.21-.33.5-.33.8,0,.3.12.59.33.8l4.61,4.61c.21.21.5.33.8.33h0c.3,0,.59-.12.8-.33l.37-.37c.42-.42.43-1.09.05-1.53l1.42-1.42,7.79,7.79-18.49.1V.76h21.29l-.05,21.89ZM12.11,17.95l-3.65-3.65,5.24-5.24,3.65,3.65-5.24,5.24ZM12.05,18.96c.14.14.14.38,0,.52l-.37.37c-.07.07-.16.11-.26.11h0c-.1,0-.19-.04-.26-.11l-4.61-4.61c-.07-.07-.11-.16-.11-.26s.04-.19.11-.26l.37-.37c.07-.07.16-.11.26-.11s.19.04.26.11l4.61,4.61ZM13.75,8.04c-.07-.07-.11-.16-.11-.26s.04-.19.11-.26l.37-.37c.07-.07.16-.11.26-.11s.19.04.26.11l4.61,4.61c.07.07.11.16.11.26s-.04.19-.11.26l-.37.37c-.07.07-.16.11-.26.11s-.19-.04-.26-.11l-4.61-4.61ZM1.53,1.37c.33-.31.73-.46,1.06-.53v24.17c-.74.07-1.34.33-1.78.79-.01-5.66-.05-20.05-.05-22.22,0-.99.26-1.73.77-2.2ZM22.13,28.06c0,1,.4,1.68.95,2.12H2.73c-.56,0-1.01-.16-1.32-.49-.6-.61-.59-1.6-.59-1.61h-.36s.36,0,.36,0c0,0,0-.13,0-.34.02-.36.11-.96.52-1.4.36-.4.92-.6,1.66-.6l19.57-.11v-.03s.36.36.36.36c-.52.56-.79,1.27-.79,2.11ZM25.92,25.96l-.51.51c-.12.12-.28.18-.44.18h0c-.17,0-.33-.07-.45-.19l-9.93-9.93,1.4-1.4,9.93,9.93c.12.12.18.28.18.45s-.07.33-.19.45Z"/>
        </g>
    </symbol>

    <symbol id="book" fill="currentColor" xmlns="http://www.w3.org/2000/svg" viewBox="0 0 25.01 30.48">
        <g id="book-Ebene_1-2">
            <path
                d="M3.23,0c-.05,0-1.29-.08-2.23.79-.66.62-1,1.53-1,2.72,0,2.46.04,20.83.05,23.76-.01.2,0,.35,0,.41,0,.18.03,1.32.79,2.1.46.47,1.08.71,1.84.71h22.16v-.75c-.09,0-2.3-.08-2.3-2.09s2.22-2.08,2.32-2.08l.1-.69L25.01,0H3.23ZM1.5,1.34c.33-.31.72-.46,1.04-.53v23.8c-.73.07-1.32.33-1.75.78-.01-5.59-.05-19.74-.05-21.88,0-.97.25-1.7.75-2.17ZM21.8,27.64c0,.98.4,1.65.93,2.09H2.69c-.55,0-.99-.16-1.3-.48-.59-.6-.58-1.58-.58-1.59h-.35s.35,0,.35,0c0,0,0-.13,0-.36.02-.36.12-.93.51-1.36.36-.39.91-.59,1.63-.59l20.24-.1c-.75.41-1.39,1.15-1.39,2.39ZM24.21,24.49l-20.92.1V.75h20.97l-.05,23.74Z"/>
        </g>
    </symbol>

    <symbol id="lisztDocument" fill="currentColor" xmlns="http://www.w3.org/2000/svg" viewBox="0 0 25.09 33.96">
        <g id="liszt-document-Ebene_1-2">
            <path
                d="M18,0H0v33.96h25.09V7.3L18,0ZM18.15,1.23l5.64,5.8h-5.64V1.23ZM.75,33.21V.75h16.65v7.04h6.94v25.42H.75Z"/>
            <path
                d="M20.27,15.05s-.01-.04-.01-.1c0-.06.01-.16.07-.28.07-.16.1-.3.1-.43,0-.26-.12-.47-.23-.68-.05-.1-.12-.21-.18-.35-.27-.59-1.12-1.93-1.13-1.94l-.18-.41c-.08-.4-.66-2.52-3.76-2.38-2.98.13-5.8.26-7.65,5.02-1.24,3.19-1.45,5.07-1.58,6.31-.05.46-.09.83-.17,1.1-.11.35-.24.66-.37.95-.26.59-.5,1.15-.43,1.77,0,0,0,0,0,0,.09.76.78,1.35,1.14,1.6.03.11.08.21.15.3.04.07.22.32.52.57l-.92,1.92.75-.16c.93-.2,3.57-.56,4.71.22,2.1,1.43,5.57,3,5.72,3.07l.35.16.15-.35s.1-.25.1-.64c0-.2-.02-.46-.1-.75-.16-.67-.46-1.33-.57-1.55l-.02-.43c.08-.28.39-1.5.5-2.22.03-.17.04-.35.06-.52.04-.37.08-.84.23-.86.25-.04.54-.11.81-.18.24-.06.56-.14.68-.14h.11c.36.05,1.47.17,1.73-.87.04-.15.05-.28.05-.41,0-.37-.13-.65-.22-.86-.03-.08-.08-.18-.1-.18.26-.38.34-.84.35-1.1.06-.08.12-.2.12-.35,0-.11-.03-.25-.11-.41-.07-.14-.09-.28-.09-.37l.15-.02c.52.07.88-.04,1.08-.32.09-.13.13-.28.13-.42,0-.32-.17-.62-.24-.75-.57-1.04-1.67-2.56-1.68-2.57ZM6.42,21.36s-.09,1.04-.27,1.76l-.09.35c-.07.26-.14.53-.19.79-.2-.21-.36-.45-.39-.7,0-.05,0-.09,0-.14,0-.38.17-.78.38-1.26.14-.31.28-.65.4-1.02.1-.34.15-.73.2-1.24.13-1.2.33-3.02,1.54-6.12,1.67-4.31,4.02-4.41,6.98-4.55.91-.04,1.55.14,1.99.4-.2.1-.38.25-.54.42-.86.98-.71,2.84-.57,4.64.08,1.02.15,1.98.03,2.63-.18.94-.45,1.77-.67,2.5-.31.99-.58,1.84-.53,2.59.1,1.53.7,2.13,1.13,2.37-.03.07-.06.12-.09.17-.35-.23-1.26-1.05-1.78-2.33-.6-1.47-.53-3.07.21-4.76,1.39-3.19.17-5.2.12-5.29l-.64.4c.04.07,1.05,1.79-.17,4.59-1.22,2.81-.55,4.94.24,6.24.41.68.91,1.22,1.32,1.56-.21.1-.54.21-.88.12-.53-.14-.59-.96-.59-.97l-.75.05s.06.79.52,1.28c-.06.1-.25.28-.81.2-.25-.04-.44-.12-.54-.26-.14-.19-.11-.44-.11-.44l-.37-.06-.37-.06s-.05.32.06.64c-.78-.75-.48-2.78.09-4.51.14-.42.12-.89.08-1.54-.03-.56-.06-1.26,0-2.16.13-1.82.68-3.08.68-3.1l-.69-.3c-.02.06-.6,1.39-.74,3.35-.07.95-.03,1.67,0,2.25.03.57.05.98-.05,1.27-.33,1.01-.91,3.1-.4,4.49-.06-.05-.12-.1-.18-.16-.45-.43-.48-2.2-.35-3.32l-.75-.09c-.04.39-.2,1.97.11,3.08-.09.2-.45.86-1.16.8-.18-.01-.34-.07-.48-.14l-.79-.93c0-.32.13-.81.22-1.17l.09-.36c.19-.78.28-1.83.29-1.87l-.75-.06ZM11.51,27.47c-.69-.47-1.72-.61-2.68-.61-.71,0-1.39.08-1.88.15l.24-.5c.18.07.38.12.59.14.74.06,1.28-.33,1.61-.75.02.03.05.05.07.08,1.2,1.14,2.13.65,2.16.63l-.13-.25c.22.22.53.36.91.41.9.13,1.37-.22,1.56-.56.97.24,1.76-.39,1.79-.42l-.03-.04c.39.03.63-.34.78-.67,0,.07-.02.14-.03.21-.11.75-.49,2.17-.5,2.19l-.02.06.03.62.04.15s.37.75.54,1.46c.05.2.07.37.07.51-1.03-.48-3.54-1.7-5.14-2.79ZM21.03,18.36h-.06s-.25.03-.25.03c0,0-.02,0-.03,0l-.09-.27c-.43.14-.96.2-1.07.15-.02-.05.03-.24.11-.38l-.65-.38c-.23.39-.35.98.05,1.32.25.22.66.23,1.04.18,0,.04,0,.08,0,.12,0,.19.04.39.11.56-.04,0-.07,0-.11.01-.29.06-.96.28-1.03.31l.24.71c.17-.06.63-.21.85-.28-.03.15-.08.34-.19.48-.09.13-.12.26-.12.38,0,.2.08.38.15.53.08.18.15.35.15.55,0,.07,0,.14-.03.22-.08.3-.31.38-.92.32h-.14c-.21-.02-.49.04-.91.15-.25.06-.51.13-.74.17-.52.08-.7.49-.79.96l-.27-.04s-.79-.13-.9-1.83c-.04-.61.2-1.36.5-2.31.24-.75.5-1.6.7-2.58.15-.75.07-1.76-.02-2.83-.12-1.56-.26-3.34.39-4.09.16-.18.36-.29.61-.35.3.4.36.79.37.82l.25.6s.86,1.36,1.1,1.9c.07.16.15.29.21.41.1.18.14.25.14.32,0,.04-.01.07-.04.13-.03.06-.05.13-.07.18h-.64s-.01.28-.23.4c-.42.24-1.04.62-1.04.62l.39.64s.04-.02.1-.06l.97.43.18-.2s.22-.26.27-.58c.03-.23-.03-.48-.07-.62,0-.01.01-.02.02-.04.03.14.07.24.1.29.01.02,1.12,1.55,1.67,2.55.14.25.14.36.15.37-.03.01-.14.05-.42,0Z"/>
        </g>
    </symbol>

    <symbol id="essay" fill="currentColor" xmlns="http://www.w3.org/2000/svg" viewBox="0 0 25.09 33.02">
        <g id="essay-Ebene_1-2">
            <rect x="4.14" y="24.48" width="14.4" height=".75"/>
            <rect x="4.14" y="13.33" width="9.55" height=".75"/>
            <rect x="4.14" y="28.3" width="14.4" height=".75"/>
            <rect x="4.14" y="20.66" width="14.4" height=".75"/>
            <path
                d="M2.15,0v2.61H0v30.41h22.47v-2.19h2.62V0H2.15ZM21.72,32.27H.75V3.36h14.83v6.22h6.14v22.69ZM16.33,8.83V3.91l4.78,4.92h-4.78ZM24.34,30.08h-1.87V9.15l-6.35-6.54H2.9V.75h21.44v29.33Z"/>
            <rect x="4.14" y="17.01" width="14.4" height=".75"/>
        </g>
    </symbol>

    <symbol id="musicSheet" fill="currentColor" xmlns="http://www.w3.org/2000/svg" viewBox="0 0 25.09 33.96">
        <g id="music-sheet-Ebene_1-2">
            <path
                d="M18,0H0v33.96h25.09V7.3L18,0ZM18.15,1.23l5.64,5.8h-5.64V1.23ZM.75,33.21V.75h16.65v7.04h6.94v25.42H.75Z"/>
            <path
                d="M13.5,11.58v-.81h-.75v10.15c-.6-.58-1.49-.96-2.51-.96-1.8,0-3.26,1.16-3.26,2.59s1.46,2.59,3.26,2.59,3.26-1.16,3.26-2.59v-6.36c.56.19,1.54.58,2.55,1.23,1.25.81.86,1.77.81,1.88l.66.36c.04-.07,1.04-1.75.32-4.48-.69-2.63-3.4-3.41-4.34-3.6ZM10.25,24.39c-1.38,0-2.51-.83-2.51-1.84s1.12-1.84,2.51-1.84,2.51.83,2.51,1.84-1.12,1.84-2.51,1.84ZM17.33,17.61c-.19-.29-.47-.57-.87-.82-1.24-.8-2.43-1.23-2.96-1.39v-3.05c.92.22,3.07.95,3.62,3.02.23.88.26,1.64.21,2.24Z"/>
        </g>
    </symbol>

    <symbol id="journalArticle" fill="currentColor" xmlns="http://www.w3.org/2000/svg" viewBox="0 0 28.55 25.22">
        <g id="journal-article-Ebene_1-2">
            <path
                d="M26.67,2.76V0l-12.47,2.67L1.74,0v2.76H0v22.47h28.55V2.76h-1.88ZM.75,24.47V3.51h.99v18.98l9.31,1.99H.75ZM13.83,24.3l-11.34-2.43V.93l11.34,2.43v20.95ZM14.58,3.35L25.92.93v20.95l-11.34,2.43V3.35ZM27.8,24.47h-10.43l9.31-1.99V3.51h1.13v20.97Z"/>
            <rect x="7.64" y="10.7" width=".75" height="7.41" transform="translate(-7.75 19.2) rotate(-77.82)"/>
            <rect x="7.64" y="14.7" width=".75" height="7.41" transform="translate(-11.67 22.36) rotate(-77.82)"/>
            <rect x="7.64" y="2.69" width=".75" height="7.41" transform="translate(.07 12.89) rotate(-77.82)"/>
            <rect x="7.64" y="6.7" width=".75" height="7.41" transform="translate(-3.84 16.05) rotate(-77.82)"/>
            <rect x="16.48" y="18.03" width="7.41" height=".75" transform="translate(-3.43 4.68) rotate(-12.19)"/>
            <rect x="16.48" y="6.02" width="7.41" height=".75" transform="translate(-.9 4.41) rotate(-12.19)"/>
            <rect x="16.48" y="10.03" width="7.41" height=".75" transform="translate(-1.74 4.5) rotate(-12.19)"/>
            <rect x="16.48" y="14.03" width="7.41" height=".75" transform="translate(-2.59 4.59) rotate(-12.19)"/>
        </g>
    </symbol>

    <symbol id="thesis" fill="currentColor" xmlns="http://www.w3.org/2000/svg" viewBox="0 0 27.11 25.31">
        <g id="thesis-Ebene_1-2">
            <path
                d="M26.32,24.56c-.11,0-1.12-.03-1.75-.65-.35-.35-.53-.83-.53-1.44,0-.75.21-1.33.62-1.74.63-.63,1.57-.66,1.67-.66l.02-.75h-.03l-21.88.11c-.88,0-1.59.27-2.09.8-.82.86-.8,2.11-.8,2.27,0,.15.01,1.24.77,2.03.51.53,1.22.79,2.12.79h21.91v-.75h-.02ZM4.43,24.56c-.68,0-1.21-.19-1.58-.56-.58-.6-.57-1.49-.57-1.5v-.03s-.04-1.06.59-1.73c.36-.38.88-.57,1.55-.57l19.82-.1s-.08.07-.12.11c-.47.46-.74,1.07-.82,1.81H5.02v.75h18.28c.05.69.3,1.26.75,1.7.04.04.08.08.13.12H4.43Z"/>
            <path
                d="M25.47,5.66l1.64-.64L13.62,0,0,5.03l4.52,1.74v5.36l.02.12c.06.16,1.43,3.83,9.02,3.83s8.85-3.69,8.9-3.84l.02-5.41,2.25-.88v4.4l-1.52,4.95h3.79l-1.52-4.95v-4.69ZM21.72,12.05c-.17.4-1.62,3.27-8.17,3.27s-8.1-2.87-8.29-3.28v-4.99l8.35,3.22,8.1-3.16v4.93ZM13.62,9.48L2.12,5.04,13.62.8l11.38,4.24-11.38,4.43ZM25.98,14.55h-1.76l.88-2.86.88,2.86Z"/>
        </g>
    </symbol>

    <symbol id="attachment" fill="currentColor" xmlns="http://www.w3.org/2000/svg" viewBox="0 0 26.56 30.41">
        <g id="Ebene_1-2">
            <rect x="13.09" y="14.38" width="9.55" height=".75"/>
            <rect x="8.23" y="25.69" width="14.4" height=".75"/>
            <path
                d="M20.21,0H4.09v2.87c-1.19.11-2.15.55-2.85,1.3C-.13,5.63,0,7.74,0,7.8v6.57c0,.08-.04,1.86,1.1,3.03.63.65,1.49.98,2.54.98.15,0,.29,0,.44-.02v12.05h22.47V6.54L20.21,0ZM20.43,1.3l4.78,4.92h-4.78V1.3ZM25.81,29.66H4.84v-11.44c.57-.16,1.06-.45,1.45-.87,1.1-1.18.99-2.93.99-2.98v-6.5s.1-1.07-.6-1.83c-.47-.52-1.16-.78-2.06-.78-1.95,0-2.48,1.68-2.49,2.57v5.85h.75v-5.85c0-.07.04-1.83,1.74-1.83.68,0,1.18.18,1.5.52.47.51.41,1.25.41,1.3v6.56s.09,1.51-.79,2.44c-.48.52-1.18.78-2.08.78-.85,0-1.52-.25-2-.75-.92-.94-.9-2.47-.9-2.5v-6.61s-.11-1.88,1.03-3.1c.67-.72,1.66-1.08,2.94-1.08s2.19.36,2.86,1.06c1.18,1.22,1.11,3.12,1.11,3.16v5.76h.75v-5.74c0-.09.08-2.23-1.32-3.69-.8-.83-1.91-1.27-3.29-1.29V.75h14.83v6.22h6.14v22.69Z"/>
            <rect x="8.23" y="21.87" width="14.4" height=".75"/>
            <rect x="8.23" y="18.06" width="14.4" height=".75"/>
        </g>
    </symbol>


</svg>
