<?xml version="1.0" encoding="UTF-8"?>
<svg id="lisztDocument" fill="currentColor" xmlns="http://www.w3.org/2000/svg" viewBox="0 0 25.09 33.96">
    <g id="liszt-document-Ebene_1-2">
        <path
            d="M18,0H0v33.96h25.09V7.3L18,0ZM18.15,1.23l5.64,5.8h-5.64V1.23ZM.75,33.21V.75h16.65v7.04h6.94v25.42H.75Z"/>
        <path
            d="M20.27,15.05s-.01-.04-.01-.1c0-.06.01-.16.07-.28.07-.16.1-.3.1-.43,0-.26-.12-.47-.23-.68-.05-.1-.12-.21-.18-.35-.27-.59-1.12-1.93-1.13-1.94l-.18-.41c-.08-.4-.66-2.52-3.76-2.38-2.98.13-5.8.26-7.65,5.02-1.24,3.19-1.45,5.07-1.58,6.31-.05.46-.09.83-.17,1.1-.11.35-.24.66-.37.95-.26.59-.5,1.15-.43,1.77,0,0,0,0,0,0,.09.76.78,1.35,1.14,1.6.03.11.08.21.15.3.04.07.22.32.52.57l-.92,1.92.75-.16c.93-.2,3.57-.56,4.71.22,2.1,1.43,5.57,3,5.72,3.07l.35.16.15-.35s.1-.25.1-.64c0-.2-.02-.46-.1-.75-.16-.67-.46-1.33-.57-1.55l-.02-.43c.08-.28.39-1.5.5-2.22.03-.17.04-.35.06-.52.04-.37.08-.84.23-.86.25-.04.54-.11.81-.18.24-.06.56-.14.68-.14h.11c.36.05,1.47.17,1.73-.87.04-.15.05-.28.05-.41,0-.37-.13-.65-.22-.86-.03-.08-.08-.18-.1-.18.26-.38.34-.84.35-1.1.06-.08.12-.2.12-.35,0-.11-.03-.25-.11-.41-.07-.14-.09-.28-.09-.37l.15-.02c.52.07.88-.04,1.08-.32.09-.13.13-.28.13-.42,0-.32-.17-.62-.24-.75-.57-1.04-1.67-2.56-1.68-2.57ZM6.42,21.36s-.09,1.04-.27,1.76l-.09.35c-.07.26-.14.53-.19.79-.2-.21-.36-.45-.39-.7,0-.05,0-.09,0-.14,0-.38.17-.78.38-1.26.14-.31.28-.65.4-1.02.1-.34.15-.73.2-1.24.13-1.2.33-3.02,1.54-6.12,1.67-4.31,4.02-4.41,6.98-4.55.91-.04,1.55.14,1.99.4-.2.1-.38.25-.54.42-.86.98-.71,2.84-.57,4.64.08,1.02.15,1.98.03,2.63-.18.94-.45,1.77-.67,2.5-.31.99-.58,1.84-.53,2.59.1,1.53.7,2.13,1.13,2.37-.03.07-.06.12-.09.17-.35-.23-1.26-1.05-1.78-2.33-.6-1.47-.53-3.07.21-4.76,1.39-3.19.17-5.2.12-5.29l-.64.4c.04.07,1.05,1.79-.17,4.59-1.22,2.81-.55,4.94.24,6.24.41.68.91,1.22,1.32,1.56-.21.1-.54.21-.88.12-.53-.14-.59-.96-.59-.97l-.75.05s.06.79.52,1.28c-.06.1-.25.28-.81.2-.25-.04-.44-.12-.54-.26-.14-.19-.11-.44-.11-.44l-.37-.06-.37-.06s-.05.32.06.64c-.78-.75-.48-2.78.09-4.51.14-.42.12-.89.08-1.54-.03-.56-.06-1.26,0-2.16.13-1.82.68-3.08.68-3.1l-.69-.3c-.02.06-.6,1.39-.74,3.35-.07.95-.03,1.67,0,2.25.03.57.05.98-.05,1.27-.33,1.01-.91,3.1-.4,4.49-.06-.05-.12-.1-.18-.16-.45-.43-.48-2.2-.35-3.32l-.75-.09c-.04.39-.2,1.97.11,3.08-.09.2-.45.86-1.16.8-.18-.01-.34-.07-.48-.14l-.79-.93c0-.32.13-.81.22-1.17l.09-.36c.19-.78.28-1.83.29-1.87l-.75-.06ZM11.51,27.47c-.69-.47-1.72-.61-2.68-.61-.71,0-1.39.08-1.88.15l.24-.5c.18.07.38.12.59.14.74.06,1.28-.33,1.61-.75.02.03.05.05.07.08,1.2,1.14,2.13.65,2.16.63l-.13-.25c.22.22.53.36.91.41.9.13,1.37-.22,1.56-.56.97.24,1.76-.39,1.79-.42l-.03-.04c.39.03.63-.34.78-.67,0,.07-.02.14-.03.21-.11.75-.49,2.17-.5,2.19l-.02.06.03.62.04.15s.37.75.54,1.46c.05.2.07.37.07.51-1.03-.48-3.54-1.7-5.14-2.79ZM21.03,18.36h-.06s-.25.03-.25.03c0,0-.02,0-.03,0l-.09-.27c-.43.14-.96.2-1.07.15-.02-.05.03-.24.11-.38l-.65-.38c-.23.39-.35.98.05,1.32.25.22.66.23,1.04.18,0,.04,0,.08,0,.12,0,.19.04.39.11.56-.04,0-.07,0-.11.01-.29.06-.96.28-1.03.31l.24.71c.17-.06.63-.21.85-.28-.03.15-.08.34-.19.48-.09.13-.12.26-.12.38,0,.2.08.38.15.53.08.18.15.35.15.55,0,.07,0,.14-.03.22-.08.3-.31.38-.92.32h-.14c-.21-.02-.49.04-.91.15-.25.06-.51.13-.74.17-.52.08-.7.49-.79.96l-.27-.04s-.79-.13-.9-1.83c-.04-.61.2-1.36.5-2.31.24-.75.5-1.6.7-2.58.15-.75.07-1.76-.02-2.83-.12-1.56-.26-3.34.39-4.09.16-.18.36-.29.61-.35.3.4.36.79.37.82l.25.6s.86,1.36,1.1,1.9c.07.16.15.29.21.41.1.18.14.25.14.32,0,.04-.01.07-.04.13-.03.06-.05.13-.07.18h-.64s-.01.28-.23.4c-.42.24-1.04.62-1.04.62l.39.64s.04-.02.1-.06l.97.43.18-.2s.22-.26.27-.58c.03-.23-.03-.48-.07-.62,0-.01.01-.02.02-.04.03.14.07.24.1.29.01.02,1.12,1.55,1.67,2.55.14.25.14.36.15.37-.03.01-.14.05-.42,0Z"/>
    </g>
</svg>
