<?xml version="1.0" encoding="UTF-8"?>
<svg id="location" fill="currentColor" xmlns="http://www.w3.org/2000/svg" viewBox="0 0 14.1 19.84">
  <g id="location-Ebene_1-2" >
    <g>
      <path class="cls-1" d="M7.05,0C3.16,0,0,3.16,0,7.05c0,5.76,6.49,12.39,6.76,12.67.08.08.18.12.28.12s.2-.04.28-.11c.28-.27,6.77-6.73,6.77-12.68,0-3.89-3.16-7.05-7.05-7.05ZM7.05,18.86c-1.25-1.35-6.25-7.04-6.25-11.81C.8,3.6,3.6.8,7.05.8s6.25,2.8,6.25,6.25c0,4.93-4.99,10.49-6.24,11.81Z"/>
      <path class="cls-1" d="M7.05,3c-1.87,0-3.4,1.52-3.4,3.4s1.52,3.4,3.4,3.4,3.4-1.52,3.4-3.4-1.52-3.4-3.4-3.4ZM7.05,9c-1.43,0-2.6-1.16-2.6-2.6s1.17-2.6,2.6-2.6,2.6,1.16,2.6,2.6-1.16,2.6-2.6,2.6Z"/>
    </g>
  </g>
</svg>
