<?xml version="1.0" encoding="UTF-8"?>
<svg id="musicSheet" fill="currentColor" xmlns="http://www.w3.org/2000/svg" viewBox="0 0 25.09 33.96">
    <g id="music-sheet-Ebene_1-2">
        <path
            d="M18,0H0v33.96h25.09V7.3L18,0ZM18.15,1.23l5.64,5.8h-5.64V1.23ZM.75,33.21V.75h16.65v7.04h6.94v25.42H.75Z"/>
        <path
            d="M13.5,11.58v-.81h-.75v10.15c-.6-.58-1.49-.96-2.51-.96-1.8,0-3.26,1.16-3.26,2.59s1.46,2.59,3.26,2.59,3.26-1.16,3.26-2.59v-6.36c.56.19,1.54.58,2.55,1.23,1.25.81.86,1.77.81,1.88l.66.36c.04-.07,1.04-1.75.32-4.48-.69-2.63-3.4-3.41-4.34-3.6ZM10.25,24.39c-1.38,0-2.51-.83-2.51-1.84s1.12-1.84,2.51-1.84,2.51.83,2.51,1.84-1.12,1.84-2.51,1.84ZM17.33,17.61c-.19-.29-.47-.57-.87-.82-1.24-.8-2.43-1.23-2.96-1.39v-3.05c.92.22,3.07.95,3.62,3.02.23.88.26,1.64.21,2.24Z"/>
    </g>
</svg>
