<?xml version="1.0" encoding="UTF-8"?>
<svg id="open-access" fill="currentColor" xmlns="http://www.w3.org/2000/svg" viewBox="0 0 12.14 20.13">
  <g id="open-access-Ebene_1-2" >
    <g>
      <path class="cls-1" d="M11.11,10.69v-5.67C11.11,2.26,8.86,0,6.08,0h0C3.31,0,1.05,2.26,1.05,5.03v.79c0,.22.18.4.4.4s.4-.18.4-.4v-.79c0-2.33,1.9-4.23,4.23-4.23h0c2.33,0,4.23,1.9,4.23,4.23v4.7c-1.09-1.07-2.59-1.73-4.24-1.73-3.35,0-6.07,2.72-6.07,6.07s2.72,6.07,6.07,6.07,6.07-2.72,6.07-6.07c0-1.25-.38-2.41-1.03-3.37ZM6.07,19.33c-2.91,0-5.27-2.36-5.27-5.27s2.36-5.27,5.27-5.27,5.27,2.36,5.27,5.27-2.36,5.27-5.27,5.27Z"/>
      <path class="cls-1" d="M6.09,11.77c-1.28,0-2.31,1.04-2.31,2.31s1.04,2.31,2.31,2.31,2.31-1.04,2.31-2.31-1.04-2.31-2.31-2.31ZM6.09,15.6c-.83,0-1.51-.68-1.51-1.51s.68-1.51,1.51-1.51,1.51.68,1.51,1.51-.68,1.51-1.51,1.51Z"/>
    </g>
  </g>
</svg>
