<?xml version="1.0" encoding="UTF-8"?>
<svg id="performance"  fill="currentColor" xmlns="http://www.w3.org/2000/svg" viewBox="0 0 18.1 17.1">
  <g id="performance-Ebene_1-2" >
    <path class="cls-1" d="M18.1.4c0-.12-.05-.23-.14-.3s-.2-.11-.32-.1L5.27,1.69c-.2.03-.35.2-.35.4v10.17c-.52-.54-1.25-.89-2.06-.89-1.58,0-2.86,1.28-2.86,2.86s1.29,2.86,2.86,2.86c1.46,0,2.65-1.1,2.83-2.5.02-.05.04-.1.04-.16v-7.88l11.57-1.57v5.84c-.52-.54-1.25-.89-2.06-.89-1.58,0-2.86,1.28-2.86,2.86s1.29,2.86,2.86,2.86,2.86-1.28,2.86-2.86c0,0,0,0,0,0,0,0,0,0,0,0V.4ZM2.86,16.3c-1.14,0-2.06-.93-2.06-2.06s.92-2.06,2.06-2.06,2.06.93,2.06,2.06-.92,2.06-2.06,2.06ZM15.23,14.86c-1.14,0-2.06-.93-2.06-2.06s.92-2.06,2.06-2.06,2.06.93,2.06,2.06-.92,2.06-2.06,2.06ZM5.73,5.75v-3.31l11.57-1.58v3.32l-11.57,1.57Z"/>
  </g>
</svg>
