<?xml version="1.0" encoding="UTF-8"?>
<svg id="person" fill="currentColor" xmlns="http://www.w3.org/2000/svg" viewBox="0 0 16.95 17.8">
  <g id="person-Ebene_1-2" >
    <g>
      <path class="cls-1" d="M12.16,10.17c-.16-.08-.36-.04-.47.1-.04.04-1.01,1.11-3.18,1.11s-3.4-1.15-3.41-1.16c-.12-.12-.31-.15-.46-.07C1.69,11.65,0,14.29,0,17.41c0,.22.18.39.4.39h16.15c.22,0,.4-.18.4-.39,0-3.14-1.74-5.78-4.79-7.24ZM.81,17c.13-2.54,1.55-4.71,3.95-6.02.49.38,1.76,1.19,3.74,1.19s3.1-.77,3.56-1.16c2.51,1.29,3.94,3.4,4.08,5.99H.81Z"/>
      <path class="cls-1" d="M7.29,10.2c3.76.84,7.06-2.45,6.22-6.22-.42-1.9-1.95-3.43-3.85-3.85C5.9-.71,2.6,2.59,3.44,6.35c.42,1.9,1.96,3.43,3.85,3.85ZM7.29.96c3.32-.88,6.28,2.08,5.4,5.4-.39,1.46-1.57,2.64-3.03,3.02-3.32.88-6.27-2.08-5.39-5.4.39-1.46,1.57-2.64,3.02-3.02Z"/>
    </g>
  </g>
</svg>
