<?xml version="1.0" encoding="UTF-8"?>
<svg id="profession" fill="currentColor" xmlns="http://www.w3.org/2000/svg" viewBox="0 0 18.28 21.31">
  <g id="profession-Ebene_1-2">
    <g>
      <path class="cls-1" d="M17.88,12.72h-2.99v-.75c0-.22-.18-.4-.4-.4h-.87c-.73-1.18-1.79-2.13-3.09-2.76-.18-.09-.39-.03-.5.13,0,.01-.83,1.16-2.67,1.16s-2.82-1.16-2.86-1.21c-.12-.15-.33-.19-.49-.1C1.54,10.06,0,12.56,0,15.34c0,.22.18.4.4.4h6.41v5.17c0,.22.18.4.4.4h10.67c.22,0,.4-.18.4-.4v-7.79c0-.22-.18-.4-.4-.4ZM14.09,12.37v.34h-3.08v-.34h3.08ZM6.81,13.12v1.82H.81c.13-2.21,1.37-4.19,3.3-5.29.45.43,1.55,1.26,3.25,1.26s2.68-.8,3.09-1.23c.88.47,1.63,1.12,2.2,1.9h-2.06c-.22,0-.4.18-.4.4v.75h-2.99c-.22,0-.4.18-.4.4ZM17.48,20.51H7.61v-3.26h3.85v1.2c0,.22.18.4.4.4h1.36c.22,0,.4-.18.4-.4v-1.2h3.85v3.26ZM12.26,16.82v-.5h.56v1.73h-.56v-1.17s0-.02,0-.03,0-.02,0-.03ZM17.48,16.45h-3.85v-.53c0-.22-.18-.4-.4-.4h-1.36c-.22,0-.4.18-.4.4v.53h-3.85v-2.93h9.87v2.93Z"/>
      <path class="cls-1" d="M7.34,9c2.48,0,4.5-2.02,4.5-4.5S9.82,0,7.34,0,2.84,2.02,2.84,4.5s2.02,4.5,4.5,4.5ZM7.34.8c2.04,0,3.7,1.66,3.7,3.7s-1.66,3.7-3.7,3.7-3.7-1.66-3.7-3.7S5.3.8,7.34.8Z"/>
    </g>
  </g>
</svg>
