<?xml version="1.0" encoding="UTF-8"?>
<svg id="thesis" fill="currentColor" xmlns="http://www.w3.org/2000/svg" viewBox="0 0 27.11 25.31">
    <g id="thesis-Ebene_1-2">
        <path
            d="M26.32,24.56c-.11,0-1.12-.03-1.75-.65-.35-.35-.53-.83-.53-1.44,0-.75.21-1.33.62-1.74.63-.63,1.57-.66,1.67-.66l.02-.75h-.03l-21.88.11c-.88,0-1.59.27-2.09.8-.82.86-.8,2.11-.8,2.27,0,.15.01,1.24.77,2.03.51.53,1.22.79,2.12.79h21.91v-.75h-.02ZM4.43,24.56c-.68,0-1.21-.19-1.58-.56-.58-.6-.57-1.49-.57-1.5v-.03s-.04-1.06.59-1.73c.36-.38.88-.57,1.55-.57l19.82-.1s-.08.07-.12.11c-.47.46-.74,1.07-.82,1.81H5.02v.75h18.28c.05.69.3,1.26.75,1.7.04.04.08.08.13.12H4.43Z"/>
        <path
            d="M25.47,5.66l1.64-.64L13.62,0,0,5.03l4.52,1.74v5.36l.02.12c.06.16,1.43,3.83,9.02,3.83s8.85-3.69,8.9-3.84l.02-5.41,2.25-.88v4.4l-1.52,4.95h3.79l-1.52-4.95v-4.69ZM21.72,12.05c-.17.4-1.62,3.27-8.17,3.27s-8.1-2.87-8.29-3.28v-4.99l8.35,3.22,8.1-3.16v4.93ZM13.62,9.48L2.12,5.04,13.62.8l11.38,4.24-11.38,4.43ZM25.98,14.55h-1.76l.88-2.86.88,2.86Z"/>
    </g>
</svg>
