<?xml version="1.0" encoding="UTF-8"?>
<svg id="work" fill="currentColor" xmlns="http://www.w3.org/2000/svg" viewBox="0 0 17.59 21.29">
  <g id="work-Ebene_1-2" >
    <g>
      <path class="cls-1" d="M17.19,17.55h-1.93l.05-17.15c0-.22-.18-.4-.4-.4H.4c-.22,0-.4.18-.4.4v18.8c0,1.07.82,1.95,1.85,2.07.03,0,.06.02.1.02h.09s.03,0,.04,0h0s13.43,0,13.43,0c1.15,0,2.09-.94,2.09-2.09v-1.25c0-.22-.18-.4-.4-.4ZM2.77,20.15c-.18.21-.43.31-.75.32-.68-.04-1.22-.59-1.22-1.27V.8h13.71v16.75H3.57c-.12,0-.23.05-.3.14-.08.09-.11.2-.09.32.06.4.09,1.58-.4,2.14ZM16.79,19.2c0,.71-.58,1.29-1.29,1.29H3.52c.45-.67.5-1.59.48-2.1h12.79v.82Z"/>
      <path class="cls-1" d="M6.41,13.33c1.27,0,2.26-.74,2.26-1.69v-3.46c.37.12.89.33,1.42.64.63.36.51.74.46.84-.1.19-.04.42.15.53.18.11.42.06.54-.12.03-.04.72-1.1.23-2.77-.45-1.52-2.07-2.03-2.8-2.19v-.32c0-.22-.18-.4-.4-.4s-.4.18-.4.4v5.56c-.39-.25-.9-.39-1.46-.39-1.27,0-2.27.74-2.27,1.69s1,1.69,2.27,1.69ZM8.67,5.93c.63.16,1.74.58,2.03,1.59.09.32.13.6.14.85-.1-.09-.22-.17-.35-.25-.73-.42-1.44-.67-1.83-.79v-1.41ZM6.41,10.75c.79,0,1.46.41,1.46.89s-.67.89-1.46.89-1.47-.41-1.47-.89.67-.89,1.47-.89Z"/>
    </g>
  </g>
</svg>
